<?xml version="1.0" encoding="UTF-8" standalone="no"?>
<!DOCTYPE svg PUBLIC "-//W3C//DTD SVG 1.1//EN" "http://www.w3.org/Graphics/SVG/1.1/DTD/svg11.dtd">
<svg width="100%" height="100%" viewBox="0 0 2413 346" version="1.1" xmlns="http://www.w3.org/2000/svg" xmlns:xlink="http://www.w3.org/1999/xlink" xml:space="preserve" xmlns:serif="http://www.serif.com/" style="fill-rule:evenodd;clip-rule:evenodd;stroke-linejoin:round;stroke-miterlimit:2;">
    <g transform="matrix(4.16667,0,0,4.16667,0,1.89167)">
        <path d="M113.657,11.674L94.311,69.045L94.311,69.792L104.442,69.792L108.426,57.671L128.519,57.671L132.421,69.792L143.048,69.792L143.048,69.045L123.704,11.674L113.657,11.674ZM118.556,26.868L125.447,48.287L111.498,48.287L118.556,26.868ZM176.756,29.94C173.988,28.113 170.363,27.199 165.879,27.199L165.214,27.199C159.29,27.199 154.6,28.943 151.142,32.43C147.683,35.917 145.953,40.567 145.953,46.379L145.953,51.692C145.953,57.504 147.683,62.154 151.142,65.64C154.6,69.128 159.29,70.872 165.214,70.872L165.879,70.872C169.974,70.872 173.379,70.083 176.09,68.504C178.802,66.927 180.934,64.561 182.484,61.406L174.099,56.673C173.379,58.279 172.367,59.567 171.068,60.534C169.767,61.504 168.037,61.986 165.879,61.986L165.214,61.986C162.06,61.986 159.735,61.02 158.24,59.081C156.746,57.144 155.999,54.654 155.999,51.609L155.999,46.462C155.999,43.362 156.746,40.858 158.24,38.947C159.735,37.039 162.06,36.084 165.214,36.084L165.879,36.084C168.091,36.084 169.851,36.595 171.151,37.619C172.45,38.644 173.461,40.014 174.181,41.729L182.982,37.577C181.598,34.312 179.522,31.766 176.756,29.94M217.686,29.94C214.918,28.113 211.293,27.199 206.811,27.199L206.146,27.199C200.223,27.199 195.532,28.943 192.073,32.43C188.613,35.917 186.884,40.567 186.884,46.379L186.884,51.692C186.884,57.504 188.613,62.154 192.073,65.64C195.532,69.128 200.223,70.872 206.146,70.872L206.811,70.872C210.906,70.872 214.31,70.083 217.022,68.504C219.733,66.927 221.864,64.561 223.416,61.406L215.03,56.673C214.31,58.279 213.298,59.567 212,60.534C210.699,61.504 208.968,61.986 206.811,61.986L206.146,61.986C202.992,61.986 200.666,61.02 199.173,59.081C197.677,57.144 196.93,54.654 196.93,51.609L196.93,46.462C196.93,43.362 197.677,40.858 199.173,38.947C200.666,37.039 202.992,36.084 206.146,36.084L206.811,36.084C209.024,36.084 210.781,36.595 212.082,37.619C213.383,38.644 214.392,40.014 215.113,41.729L223.913,37.577C222.529,34.312 220.454,31.766 217.686,29.94M228.811,28.279L228.811,54.598C228.811,59.469 230.14,63.399 232.796,66.388C235.453,69.377 239.023,70.872 243.508,70.872L244.586,70.872C247.077,70.872 249.361,70.359 251.435,69.335C253.511,68.311 255.241,66.858 256.625,64.976L258.37,69.792L266.007,69.792L266.007,28.279L255.878,28.279L255.878,52.522C255.823,55.291 255.061,57.588 253.595,59.414C252.127,61.24 250.066,62.154 247.409,62.154L246.414,62.154C244.2,62.154 242.399,61.435 241.016,59.995C239.632,58.556 238.94,56.175 238.94,52.854L238.94,28.279L228.811,28.279ZM294.402,69.792L306.606,27.449L318.229,69.792L327.529,69.792L344.217,12.421L344.217,11.674L334.253,11.674L323.295,52.771L312.5,11.674L301.458,11.674L290.083,53.436L279.375,11.674L268.83,11.674L268.83,12.421L284.853,69.792L294.402,69.792ZM371.532,57.256C370.811,58.749 369.817,59.926 368.542,60.784C367.27,61.643 365.609,62.07 363.56,62.07L362.897,62.07C359.796,62.07 357.459,61.213 355.88,59.497C354.305,57.782 353.403,55.54 353.182,52.771L382.242,52.771L382.242,48.538C382.242,42.061 380.525,36.887 377.094,33.011C373.662,29.138 368.986,27.199 363.063,27.199L362.399,27.199C356.476,27.199 351.784,29.123 348.326,32.97C344.866,36.818 343.136,41.785 343.136,47.873L343.136,50.612C343.136,53.602 343.593,56.342 344.506,58.833C345.419,61.324 346.72,63.455 348.41,65.225C350.096,66.998 352.172,68.379 354.635,69.377C357.099,70.373 359.852,70.872 362.897,70.872L363.56,70.872C367.434,70.872 370.784,70.095 373.608,68.546C376.43,66.998 378.699,64.701 380.414,61.655L371.532,57.256ZM363.063,36.001C365.94,36.001 368.127,36.831 369.622,38.491C371.117,40.152 371.947,42.366 372.114,45.133L353.266,45.133C353.433,42.366 354.275,40.152 355.797,38.491C357.321,36.831 359.52,36.001 362.399,36.001L363.063,36.001ZM401.42,70.872C404.077,70.872 406.443,70.373 408.519,69.377C410.595,68.379 412.324,66.832 413.707,64.727L415.452,69.792L423.172,69.792L423.172,42.559C423.172,37.412 421.679,33.538 418.69,30.936C415.701,28.335 411.52,27.033 406.153,27.033L405.156,27.033C400.341,27.033 396.548,28.017 393.781,29.981C391.013,31.946 389.214,34.34 388.385,37.162L397.352,40.816C397.85,39.433 398.722,38.271 399.967,37.329C401.213,36.388 402.887,35.917 404.991,35.917L405.987,35.917C408.366,35.917 410.137,36.499 411.3,37.661C412.461,38.823 413.043,40.456 413.043,42.559L413.043,44.634L405.654,44.634C399.565,44.634 394.931,45.826 391.747,48.205C388.565,50.586 386.974,53.767 386.974,57.754L386.974,58.334C386.974,62.21 388.177,65.267 390.584,67.508C392.993,69.75 396.383,70.872 400.755,70.872L401.42,70.872ZM403.496,62.237C401.392,62.237 399.787,61.822 398.68,60.991C397.573,60.161 397.02,58.999 397.02,57.504L397.02,57.173C397.02,55.624 397.642,54.363 398.888,53.394C400.133,52.426 402.333,51.941 405.489,51.941L413.043,51.941L413.043,53.436C413.043,56.424 412.227,58.639 410.595,60.078C408.961,61.518 406.817,62.237 404.161,62.237L403.496,62.237ZM445.921,60.701C445.258,60.119 444.926,59.027 444.926,57.421L444.926,36.499L454.971,36.499L454.971,28.279L444.926,28.279L444.926,19.146L436.208,19.146L435.127,28.279L428.321,28.279L428.321,36.499L434.796,36.499L434.796,57.504C434.796,61.324 435.709,64.327 437.536,66.512C439.363,68.7 442.434,69.792 446.752,69.792L454.805,69.792L454.805,61.572L448.911,61.572C447.582,61.572 446.585,61.282 445.921,60.701M472.657,69.792L472.657,45.549C472.709,42.782 473.458,40.484 474.897,38.657C476.336,36.831 478.383,35.917 481.041,35.917L482.038,35.917C484.307,35.917 486.119,36.637 487.476,38.076C488.831,39.516 489.509,41.895 489.509,45.216L489.509,69.792L499.722,69.792L499.722,43.473C499.722,38.603 498.379,34.672 495.697,31.683C493.011,28.694 489.454,27.199 485.026,27.199L483.865,27.199C481.649,27.199 479.574,27.629 477.638,28.487C475.699,29.345 474.039,30.549 472.657,32.098L472.657,11.674L462.445,11.674L462.445,69.792L472.657,69.792ZM534.924,57.256C534.205,58.749 533.207,59.926 531.935,60.784C530.662,61.643 529.001,62.07 526.954,62.07L526.29,62.07C523.189,62.07 520.851,61.213 519.274,59.497C517.697,57.782 516.795,55.54 516.575,52.771L545.634,52.771L545.634,48.538C545.634,42.061 543.918,36.887 540.487,33.011C537.054,29.138 532.377,27.199 526.455,27.199L525.791,27.199C519.869,27.199 515.177,29.123 511.719,32.97C508.258,36.818 506.529,41.785 506.529,47.873L506.529,50.612C506.529,53.602 506.986,56.342 507.9,58.833C508.813,61.324 510.113,63.455 511.8,65.225C513.49,66.998 515.565,68.379 518.028,69.377C520.491,70.373 523.245,70.872 526.29,70.872L526.954,70.872C530.828,70.872 534.178,70.095 536.999,68.546C539.822,66.998 542.091,64.701 543.808,61.655L534.924,57.256ZM526.455,36.001C529.332,36.001 531.521,36.831 533.015,38.491C534.509,40.152 535.34,42.366 535.505,45.133L516.66,45.133C516.825,42.366 517.667,40.152 519.191,38.491C520.712,36.831 522.914,36.001 525.791,36.001L526.455,36.001ZM562.653,69.792L562.653,48.703C562.653,44.386 563.568,41.494 565.395,40.028C567.22,38.561 570.155,37.827 574.194,37.827L578.097,37.827L578.097,28.279L574.776,28.279C571.787,28.279 569.212,28.723 567.054,29.607C564.895,30.493 563.206,31.766 561.99,33.426L559.997,28.279L552.526,28.279L552.526,69.792L562.653,69.792" style="fill:white;fill-rule:nonzero;"/>
    </g>
    <g transform="matrix(4.16667,0,0,4.16667,0,1.35)">
        <path d="M82.681,41.224L73.259,32.691L77.087,20.57L64.66,17.891L61.91,5.479L49.813,9.37L41.232,0L32.694,9.419L20.573,5.594L17.891,18.012L5.482,20.762L9.371,32.863L0,41.448L9.417,49.98L5.593,62.1L18.015,64.779L20.763,77.191L32.87,73.306L41.45,82.676L49.983,73.258L62.106,77.084L64.79,64.666L77.195,61.907L73.302,49.807L82.681,41.224ZM41.325,70.023C25.525,70.023 12.672,57.168 12.672,41.367C12.672,25.576 25.525,12.719 41.325,12.719C57.12,12.719 69.97,25.576 69.97,41.367C69.97,57.168 57.12,70.023 41.325,70.023" style="fill:rgb(240,87,34);fill-rule:nonzero;"/>
    </g>
    <g transform="matrix(-2.9462,2.94636,2.94636,2.9462,172.258,-70.0087)">
        <path d="M41.346,15.774C27.243,15.774 15.774,27.244 15.775,41.343C15.778,55.432 27.245,66.905 41.346,66.905C55.438,66.904 66.907,55.435 66.908,41.338C66.907,27.24 55.439,15.773 41.346,15.774" style="fill:rgb(240,87,34);fill-rule:nonzero;"/>
    </g>
</svg>
