<svg fill="none" height="32" viewBox="0 0 32 32" width="32" xmlns="http://www.w3.org/2000/svg"><g clip-rule="evenodd" fill="#fa0" fill-rule="evenodd"><path d="m12 12.8262c0 3.866 3.134 7 7 7 2.2287 0 4.2141-1.0415 5.496-2.6644.0781-.0988.2214-.1156.3201-.0376.0634.0501.0955.1299.0846.2099-.0063.0457-.0126.0879-.0189.1265-.6975 4.2758-4.4085 7.5393-8.8818 7.5393-4.9706 0-9-4.0294-9-9 0-4.2359 2.92633-7.78828 6.8676-8.74586.0669-.01625.1431-.0329.2287-.04995v-.00027c.1355-.02624.2667.06237.2929.19793.017.0874-.0139.17721-.0809.23578-.0689.0577-.1282.11183-.179.1611-1.3132 1.27266-2.1293 3.05477-2.1293 5.02757z"/><path d="m17.2015 13.0927-1.305-.3514c-.1333-.0359-.2123-.1731-.1764-.3064.0232-.086.0904-.1532.1764-.1764l1.305-.3514c.3442-.0926.613-.3614.7056-.7056l.3514-1.30501c.0359-.13332.1731-.2123.3064-.1764.086.02316.1532.09036.1764.1764l.3514 1.30501c.0926.3442.3615.613.7056.7056l1.305.3514c.1334.0359.2123.1731.1764.3064-.0231.086-.0903.1532-.1764.1764l-1.305.3514c-.3441.0926-.613.3615-.7056.7056l-.3514 1.305c-.0359.1334-.1731.2123-.3064.1764-.086-.0231-.1532-.0903-.1764-.1764l-.3514-1.305c-.0926-.3441-.3614-.613-.7056-.7056z"/><path d="m22.4136 8.88055-.5171-.13924c-.1333-.03589-.2123-.17307-.1764-.3064.0232-.08603.0904-.15324.1764-.1764l.5171-.13925c.3442-.09266.613-.36147.7057-.70562l.1392-.51715c.0359-.13332.1731-.2123.3064-.1764.086.02316.1532.09036.1764.1764l.1393.51715c.0926.34415.3614.61296.7056.70562l.5171.13925c.1334.03589.2123.17307.1764.3064-.0231.08603-.0903.15324-.1764.1764l-.5171.13924c-.3442.09266-.613.36148-.7056.70563l-.1393.51712c-.0359.1334-.1731.2123-.3064.1764-.086-.0231-.1532-.0903-.1764-.1764l-.1392-.51712c-.0927-.34415-.3615-.61297-.7057-.70563z"/></g></svg>