<svg fill="none" height="32" viewBox="0 0 32 32" width="32" xmlns="http://www.w3.org/2000/svg">
    <path clip-rule="evenodd"
          d="m15 7.75c1.2905 0 2.4723.46552 3.3864 1.23799 1.0804.91296 1.7876 2.25421 1.8577 3.76231l1.7559-.0003c1.1736 0 2.2361.4757 3.0052 1.2448s1.2448 1.8316 1.2448 3.0052-.4757 2.2361-1.2448 3.0052-1.8316 1.2448-3.0052 1.2448h-12.5c-1.03553 0-1.97303-.4197-2.65165-1.0983-.67862-.6787-1.09835-1.6162-1.09835-2.6517 0-.9599.36059-1.8356.95383-2.4988.59951-.6703 1.43639-1.1242 2.37882-1.2283.242-.0267.48223-.0295.71794-.01-.03313-.2403-.05027-.4858-.05029-.7355-.00013-1.4617.5862-2.7806 1.5356-3.73446.95-.95442 2.2634-1.54294 3.7141-1.54294z"
          fill-rule="evenodd" stroke="#1d1e1f" stroke-width="1.5"/>
</svg>