<svg fill="none" height="32" viewBox="0 0 32 32" width="32" xmlns="http://www.w3.org/2000/svg"><path d="m16 5.75c.8975 0 1.71.36377 2.2981.9519.5881.58814.9519 1.40064.9519 2.2982l.0009 6.8772c1.2175.9615 1.9991 2.4508 1.9991 4.1227 0 1.4497-.5876 2.7622-1.5377 3.7123s-2.2626 1.5377-3.7123 1.5377-2.7622-.5876-3.7123-1.5377-1.5377-2.2626-1.5377-3.7123c0-1.6724.782-3.162 2.0001-4.1235l-.0001-6.8765c0-.89746.3638-1.70996.9519-2.2981.5881-.58813 1.4006-.9519 2.2981-.9519z" stroke="#1d1e1f" stroke-width="1.5"/><g fill="#1d1e1f"><path d="m24.5 8h-2c-.2761 0-.5.22386-.5.5s.2239.5.5.5h2c.2761 0 .5-.22386.5-.5s-.2239-.5-.5-.5z"/><path d="m24.5 11h-2c-.2761 0-.5.2239-.5.5s.2239.5.5.5h2c.2761 0 .5-.2239.5-.5s-.2239-.5-.5-.5z"/><path d="m24.5 14h-2c-.2761 0-.5.2239-.5.5s.2239.5.5.5h2c.2761 0 .5-.2239.5-.5s-.2239-.5-.5-.5z"/></g><path d="m16 15c.5523 0 1 .4477 1 1l.0009 1.171c1.1647.4121 1.9991 1.5231 1.9991 2.829 0 1.6569-1.3431 3-3 3s-3-1.3431-3-3c0-1.3063.8348-2.4175 2.0001-2.8293l-.0001-1.1707c0-.5523.4477-1 1-1z" fill="#19c6ff"/></svg>