<svg fill="none" height="32" viewBox="0 0 32 32" width="32" xmlns="http://www.w3.org/2000/svg" xmlns:xlink="http://www.w3.org/1999/xlink"><filter id="a" color-interpolation-filters="sRGB" filterUnits="userSpaceOnUse" height="6" width="14" x="4" y="22"><feFlood flood-opacity="0" result="BackgroundImageFix"/><feBlend in="SourceGraphic" in2="BackgroundImageFix" mode="normal" result="shape"/><feGaussianBlur result="effect1_foregroundBlur_8_13604" stdDeviation="1"/></filter><filter id="b" color-interpolation-filters="sRGB" filterUnits="userSpaceOnUse" height="6" width="20" x="6" y="26"><feFlood flood-opacity="0" result="BackgroundImageFix"/><feBlend in="SourceGraphic" in2="BackgroundImageFix" mode="normal" result="shape"/><feGaussianBlur result="effect1_foregroundBlur_8_13604" stdDeviation="1"/></filter><filter id="c" color-interpolation-filters="sRGB" filterUnits="userSpaceOnUse" height="6" width="13" x="15" y="22"><feFlood flood-opacity="0" result="BackgroundImageFix"/><feBlend in="SourceGraphic" in2="BackgroundImageFix" mode="normal" result="shape"/><feGaussianBlur result="effect1_foregroundBlur_8_13604" stdDeviation="1"/></filter><path clip-rule="evenodd" d="m15 7.75c1.2905 0 2.4723.46552 3.3864 1.23799 1.0804.91296 1.7876 2.25421 1.8577 3.76231l1.7559-.0003c1.1736 0 2.2361.4757 3.0052 1.2448s1.2448 1.8316 1.2448 3.0052-.4757 2.2361-1.2448 3.0052-1.8316 1.2448-3.0052 1.2448h-12.5c-1.03553 0-1.97303-.4197-2.65165-1.0983-.67862-.6787-1.09835-1.6162-1.09835-2.6517 0-.96.3607-1.8358.95411-2.4992.59967-.6703 1.43675-1.1241 2.37938-1.228.24216-.0267.48255-.0293.71841-.0099-.03326-.2403-.0505-.486-.0506-.7359-.00057-1.4615.5855-2.7803 1.5347-3.73402.9499-.95444 2.2632-1.54298 3.714-1.54298z" fill-rule="evenodd" stroke="#fff" stroke-width="1.5"/><g filter="url(#a)" opacity=".9"><path d="m15 24h-8c-.55228 0-1 .4477-1 1s.44772 1 1 1h8c.5523 0 1-.4477 1-1s-.4477-1-1-1z" fill="#fff"/></g><g filter="url(#b)" opacity=".5"><path d="m23 28h-14c-.55228 0-1 .4477-1 1s.44772 1 1 1h14c.5523 0 1-.4477 1-1s-.4477-1-1-1z" fill="#fff"/></g><g filter="url(#c)" opacity=".7"><path d="m25 24h-7c-.5523 0-1 .4477-1 1s.4477 1 1 1h7c.5523 0 1-.4477 1-1s-.4477-1-1-1z" fill="#fff"/></g></svg>