<svg fill="none" height="32" viewBox="0 0 32 32" width="32" xmlns="http://www.w3.org/2000/svg"><g clip-rule="evenodd" fill-rule="evenodd"><path d="m15 7.75c1.2905 0 2.4723.46552 3.3864 1.23799 1.0804.91296 1.7876 2.25421 1.8577 3.76231l1.7559-.0003c1.1736 0 2.2361.4757 3.0052 1.2448s1.2448 1.8316 1.2448 3.0052-.4757 2.2361-1.2448 3.0052-1.8316 1.2448-3.0052 1.2448h-12.5c-1.03553 0-1.97303-.4197-2.65165-1.0983-.67862-.6787-1.09835-1.6162-1.09835-2.6517 0-.9599.36059-1.8356.95383-2.4988.59951-.6703 1.43639-1.1242 2.37882-1.2283.242-.0267.48223-.0295.71794-.01-.03313-.2403-.05027-.4858-.05029-.7355-.00013-1.4617.5862-2.7806 1.5356-3.73446.95-.95442 2.2634-1.54294 3.7141-1.54294z" stroke="#1d1e1f" stroke-width="1.5"/><path d="m23 27c.5523 0 1-.4477 1-1s-.4477-1-1-1-1 .4477-1 1 .4477 1 1 1z" fill="#b1b1b3"/><path d="m21 30c.5523 0 1-.4477 1-1s-.4477-1-1-1-1 .4477-1 1 .4477 1 1 1z" fill="#b1b1b3" opacity=".7"/><path d="m20 25c.5523 0 1-.4477 1-1s-.4477-1-1-1-1 .4477-1 1 .4477 1 1 1z" fill="#b1b1b3"/><path d="m18 28c.5523 0 1-.4477 1-1s-.4477-1-1-1-1 .4477-1 1 .4477 1 1 1z" fill="#b1b1b3" opacity=".7"/></g><path d="m8.79849 29.7077c.8002.2144 1.63791-.3172 1.87101-1.1872.1554-.5801-.0006-1.9295-.4682-4.0483-1.46427 1.6012-2.27413 2.6917-2.42956 3.2718-.23314.8701.22656 1.7493 1.02675 1.9637z" fill="#52abf2"/><path d="m13.7986 28.7077c.8002.2144 1.6379-.3171 1.871-1.1872.1436-.5356.0215-1.7271-.3661-3.5745l-.0007.0001c-.0298-.1348-.1632-.22-.298-.1902-.0519.0114-.0987.0391-.1338.079-1.2556 1.4048-1.9558 2.3741-2.0991 2.9092-.2332.87.2265 1.7492 1.0267 1.9636z" fill="#52abf2"/></svg>