<svg fill="none" height="32" viewBox="0 0 32 32" width="32" xmlns="http://www.w3.org/2000/svg" xmlns:xlink="http://www.w3.org/1999/xlink"><linearGradient id="a" gradientUnits="userSpaceOnUse" x1="15.9657" x2="15.9657" y1="7" y2="18.6125"><stop offset="0" stop-color="#1ac6ff" stop-opacity=".468777"/><stop offset="1" stop-color="#1ac6ff" stop-opacity="0"/></linearGradient><path d="m24.7714 8.18885-2.2714 11.81115-1.4464-6.3643c-.1224-.5386-.6582-.8759-1.1968-.7535-.3866.0878-.6848.3958-.7601.7851l-2.0967 10.8327-1.365-12.2855c-.061-.5489-.5554-.9444-1.1043-.8834-.4196.0466-.7647.3516-.8624.7622l-1.1683 4.9067-1.3563-4.408c-.1624-.5278-.722-.8241-1.24984-.6617-.22982.0708-.42647.2219-.55391.4258l-1.33993 2.1439-.84904-6.36784c-.07299-.54744.31162-1.0504.85906-1.12339.04381-.00584.08797-.00877.13217-.00877h15.64719c.5523 0 1 .44772 1 1 0 .06338-.006.12661-.018.18885z" fill="url(#a)" stroke="#1ac6ff" stroke-linecap="round" stroke-linejoin="round" stroke-width="1.25"/></svg>