<?xml version="1.0" encoding="UTF-8" standalone="no"?>
<!DOCTYPE svg PUBLIC "-//W3C//DTD SVG 1.1//EN" "http://www.w3.org/Graphics/SVG/1.1/DTD/svg11.dtd">
<svg width="100%" height="100%" viewBox="0 0 12 13" version="1.1" xmlns="http://www.w3.org/2000/svg" xmlns:xlink="http://www.w3.org/1999/xlink" xml:space="preserve" xmlns:serif="http://www.serif.com/" style="fill-rule:evenodd;clip-rule:evenodd;stroke-linejoin:round;stroke-miterlimit:2;">
    <g>
        <clipPath id="_clip1">
            <path d="M277.771,-86C284.457,-86 286.882,-85.304 289.326,-83.997C291.771,-82.689 293.689,-80.771 294.996,-78.326C296.304,-75.882 297,-73.457 297,-66.771L297,460.771C297,467.457 296.304,469.882 294.996,472.326C293.689,474.771 291.771,476.689 289.326,477.996C286.882,479.304 284.457,480 277.771,480L-3.771,480C-10.457,480 -12.882,479.304 -15.326,477.996C-17.771,476.689 -19.689,474.771 -20.996,472.326C-22.304,469.882 -23,467.457 -23,460.771L-23,-66.771C-23,-73.457 -22.304,-75.882 -20.996,-78.326C-19.689,-80.771 -17.771,-82.689 -15.326,-83.997C-12.882,-85.304 -10.457,-86 -3.771,-86L277.771,-86ZM137,-96L146,-86L128,-86L137,-96Z"/>
        </clipPath>
        <g clip-path="url(#_clip1)">
            <g>
                <clipPath id="_clip2">
                    <path d="M2.66,8.38C2.174,8.744 1.485,8.646 1.12,8.16C0.755,7.674 0.854,6.984 1.34,6.62L5.34,3.62C5.731,3.327 6.269,3.327 6.66,3.62L10.66,6.62C11.146,6.984 11.245,7.674 10.88,8.16C10.515,8.646 9.826,8.744 9.34,8.38L6,5.875L2.66,8.38ZM6,4C6.552,4 7,4.448 7,5L7,12C7,12.552 6.552,13 6,13C5.448,13 5,12.552 5,12L5,5C5,4.448 5.448,4 6,4ZM1.5,0C2.013,0 2.436,0.383 2.493,0.883L2.5,1C2.5,1.513 2.117,1.936 1.617,1.993L1.5,2C0.948,2 0.5,1.556 0.5,1C0.5,0.487 0.883,0.064 1.383,0.007L1.5,0ZM4.5,0C5.013,0 5.436,0.383 5.493,0.883L5.5,1C5.5,1.513 5.117,1.936 4.617,1.993L4.5,2C3.948,2 3.5,1.556 3.5,1C3.5,0.487 3.883,0.064 4.383,0.007L4.5,0ZM7.5,0C8.013,0 8.436,0.383 8.493,0.883L8.5,1C8.5,1.513 8.117,1.936 7.617,1.993L7.5,2C6.948,2 6.5,1.556 6.5,1C6.5,0.487 6.883,0.064 7.383,0.007L7.5,0ZM10.5,0C11.013,0 11.436,0.383 11.493,0.883L11.5,1C11.5,1.513 11.117,1.936 10.617,1.993L10.5,2C9.948,2 9.5,1.556 9.5,1C9.5,0.487 9.883,0.064 10.383,0.007L10.5,0Z" clip-rule="nonzero"/>
                </clipPath>
                <g clip-path="url(#_clip2)">
                    <rect x="0" y="0" width="12" height="13" style="fill:rgb(39,39,41);"/>
                </g>
            </g>
        </g>
    </g>
</svg>
