<?xml version="1.0" encoding="UTF-8" standalone="no"?>
<!DOCTYPE svg PUBLIC "-//W3C//DTD SVG 1.1//EN" "http://www.w3.org/Graphics/SVG/1.1/DTD/svg11.dtd">
<svg width="100%" height="100%" viewBox="0 0 12 13" version="1.1" xmlns="http://www.w3.org/2000/svg" xmlns:xlink="http://www.w3.org/1999/xlink" xml:space="preserve" xmlns:serif="http://www.serif.com/" style="fill-rule:evenodd;clip-rule:evenodd;stroke-linejoin:round;stroke-miterlimit:2;">
    <g>
        <clipPath id="_clip1">
            <path d="M221.771,-85C228.457,-85 230.882,-84.304 233.326,-82.997C235.771,-81.689 237.689,-79.771 238.997,-77.326C240.304,-74.882 241,-72.457 241,-65.771L241,461.771C241,468.457 240.304,470.882 238.997,473.326C237.689,475.771 235.771,477.689 233.326,478.996C230.882,480.304 228.457,481 221.771,481L-59.771,481C-66.457,481 -68.882,480.304 -71.326,478.996C-73.771,477.689 -75.689,475.771 -76.997,473.326C-78.304,470.882 -79,468.457 -79,461.771L-79,-65.771C-79,-72.457 -78.304,-74.882 -76.997,-77.326C-75.689,-79.771 -73.771,-81.689 -71.326,-82.997C-68.882,-84.304 -66.457,-85 -59.771,-85L221.771,-85ZM81,-95L90,-85L72,-85L81,-95Z"/>
        </clipPath>
        <g clip-path="url(#_clip1)">
            <g>
                <clipPath id="_clip2">
                    <path d="M1.5,11C2.013,11 2.436,11.383 2.493,11.883L2.5,12C2.5,12.513 2.117,12.936 1.617,12.993L1.5,13C0.948,13 0.5,12.556 0.5,12C0.5,11.487 0.883,11.064 1.383,11.007L1.5,11ZM4.5,11C5.013,11 5.436,11.383 5.493,11.883L5.5,12C5.5,12.513 5.117,12.936 4.617,12.993L4.5,13C3.948,13 3.5,12.556 3.5,12C3.5,11.487 3.883,11.064 4.383,11.007L4.5,11ZM7.5,11C8.013,11 8.436,11.383 8.493,11.883L8.5,12C8.5,12.513 8.117,12.936 7.617,12.993L7.5,13C6.948,13 6.5,12.556 6.5,12C6.5,11.487 6.883,11.064 7.383,11.007L7.5,11ZM10.5,11C11.013,11 11.436,11.383 11.493,11.883L11.5,12C11.5,12.513 11.117,12.936 10.617,12.993L10.5,13C9.948,13 9.5,12.556 9.5,12C9.5,11.487 9.883,11.064 10.383,11.007L10.5,11ZM6,0C6.552,0 7,0.448 7,1L7,6.375L9.34,4.62C9.791,4.282 10.418,4.342 10.797,4.742L10.88,4.84C11.245,5.326 11.146,6.015 10.66,6.38L6.66,9.38C6.269,9.673 5.731,9.673 5.34,9.38L1.34,6.38C0.854,6.015 0.755,5.326 1.12,4.84C1.485,4.354 2.174,4.255 2.66,4.62L5,6.375L5,1C5,0.448 5.448,0 6,0Z" clip-rule="nonzero"/>
                </clipPath>
                <g clip-path="url(#_clip2)">
                    <rect x="0" y="0" width="12" height="13" style="fill:rgb(145,145,146);"/>
                </g>
            </g>
        </g>
    </g>
</svg>
