<?xml version="1.0" encoding="UTF-8" standalone="no"?>
<!DOCTYPE svg PUBLIC "-//W3C//DTD SVG 1.1//EN" "http://www.w3.org/Graphics/SVG/1.1/DTD/svg11.dtd">
<svg width="100%" height="100%" viewBox="0 0 12 13" version="1.1" xmlns="http://www.w3.org/2000/svg" xmlns:xlink="http://www.w3.org/1999/xlink" xml:space="preserve" xmlns:serif="http://www.serif.com/" style="fill-rule:evenodd;clip-rule:evenodd;stroke-linejoin:round;stroke-miterlimit:2;">
    <g>
        <clipPath id="_clip1">
            <path d="M222.771,-85C229.457,-85 231.882,-84.304 234.326,-82.997C236.771,-81.689 238.689,-79.771 239.997,-77.326C241.304,-74.882 242,-72.457 242,-65.771L242,461.771C242,468.457 241.304,470.882 239.997,473.326C238.689,475.771 236.771,477.689 234.326,478.996C231.882,480.304 229.457,481 222.771,481L-58.771,481C-65.457,481 -67.882,480.304 -70.326,478.996C-72.771,477.689 -74.689,475.771 -75.997,473.326C-77.304,470.882 -78,468.457 -78,461.771L-78,-65.771C-78,-72.457 -77.304,-74.882 -75.997,-77.326C-74.689,-79.771 -72.771,-81.689 -70.326,-82.997C-67.882,-84.304 -65.457,-85 -58.771,-85L222.771,-85ZM82,-95L91,-85L73,-85L82,-95Z"/>
        </clipPath>
        <g clip-path="url(#_clip1)">
            <g>
                <clipPath id="_clip2">
                    <path d="M1.5,11C2.013,11 2.436,11.383 2.493,11.883L2.5,12C2.5,12.513 2.117,12.936 1.617,12.993L1.5,13C0.948,13 0.5,12.556 0.5,12C0.5,11.487 0.883,11.064 1.383,11.007L1.5,11ZM4.5,11C5.013,11 5.436,11.383 5.493,11.883L5.5,12C5.5,12.513 5.117,12.936 4.617,12.993L4.5,13C3.948,13 3.5,12.556 3.5,12C3.5,11.487 3.883,11.064 4.383,11.007L4.5,11ZM7.5,11C8.013,11 8.436,11.383 8.493,11.883L8.5,12C8.5,12.513 8.117,12.936 7.617,12.993L7.5,13C6.948,13 6.5,12.556 6.5,12C6.5,11.487 6.883,11.064 7.383,11.007L7.5,11ZM10.5,11C11.013,11 11.436,11.383 11.493,11.883L11.5,12C11.5,12.513 11.117,12.936 10.617,12.993L10.5,13C9.948,13 9.5,12.556 9.5,12C9.5,11.487 9.883,11.064 10.383,11.007L10.5,11ZM6,0C6.552,0 7,0.448 7,1L7,6.375L9.34,4.62C9.791,4.282 10.418,4.342 10.797,4.742L10.88,4.84C11.245,5.326 11.146,6.015 10.66,6.38L6.66,9.38C6.269,9.673 5.731,9.673 5.34,9.38L1.34,6.38C0.854,6.015 0.755,5.326 1.12,4.84C1.485,4.354 2.174,4.255 2.66,4.62L5,6.375L5,1C5,0.448 5.448,0 6,0Z" clip-rule="nonzero"/>
                </clipPath>
                <g clip-path="url(#_clip2)">
                    <rect x="0" y="0" width="12" height="13" style="fill:rgb(190,191,192);"/>
                </g>
            </g>
        </g>
    </g>
</svg>
