<?xml version="1.0" encoding="UTF-8" standalone="no"?>
<!DOCTYPE svg PUBLIC "-//W3C//DTD SVG 1.1//EN" "http://www.w3.org/Graphics/SVG/1.1/DTD/svg11.dtd">
<svg width="100%" height="100%" viewBox="0 0 16 16" version="1.1" xmlns="http://www.w3.org/2000/svg" xmlns:xlink="http://www.w3.org/1999/xlink" xml:space="preserve" xmlns:serif="http://www.serif.com/" style="fill-rule:evenodd;clip-rule:evenodd;stroke-linejoin:round;stroke-miterlimit:2;">
    <path d="M8,1C8.276,1 8.5,1.224 8.5,1.5L8.499,2.015C9.149,2.055 9.778,2.173 10.376,2.359C10.125,2.969 10,3.516 10,4C10,5.381 11.119,6.5 12.5,6.5C13.354,6.5 14.107,6.072 14.558,5.419C15.2,6.335 15.655,7.393 15.866,8.536L15.875,8.583C15.326,8.229 14.467,8 13.5,8C12.43,8 11.491,8.28 10.96,8.701C10.427,8.337 9.537,8.079 8.5,8.015L8.5,13C8.5,14.105 7.605,15 6.5,15C5.395,15 4.5,14.105 4.5,13L4.5,12.5L4.508,12.41C4.55,12.177 4.755,12 5,12C5.276,12 5.5,12.224 5.5,12.5L5.5,13C5.5,13.552 5.948,14 6.5,14C7.052,14 7.5,13.552 7.5,13L7.499,8.015C6.463,8.079 5.573,8.337 5.038,8.701C4.509,8.28 3.57,8 2.5,8C1.534,8 0.674,8.229 0.125,8.583L0.134,8.536C0.401,7.091 1.056,5.783 1.987,4.723C2.284,4.9 2.63,5 3,5C4.105,5 5,4.105 5,3C5,2.871 4.989,2.736 4.967,2.596C5.755,2.272 6.607,2.07 7.5,2.015L7.5,1.5C7.5,1.224 7.724,1 8,1ZM12.5,1C13.5,2.25 14,3.25 14,4C14,4.828 13.328,5.5 12.5,5.5C11.672,5.5 11,4.828 11,4C11,3.25 11.5,2.25 12.5,1ZM3,1C3.667,1.833 4,2.5 4,3C4,3.552 3.552,4 3,4C2.448,4 2,3.552 2,3C2,2.5 2.333,1.833 3,1Z" style="fill:rgb(235,235,246);"/>
</svg>
