<?xml version="1.0" encoding="UTF-8" standalone="no"?>
<!DOCTYPE svg PUBLIC "-//W3C//DTD SVG 1.1//EN" "http://www.w3.org/Graphics/SVG/1.1/DTD/svg11.dtd">
<svg width="100%" height="100%" viewBox="0 0 16 16" version="1.1" xmlns="http://www.w3.org/2000/svg" xmlns:xlink="http://www.w3.org/1999/xlink" xml:space="preserve" xmlns:serif="http://www.serif.com/" style="fill-rule:evenodd;clip-rule:evenodd;stroke-linejoin:round;stroke-miterlimit:2;">
    <g transform="matrix(1,0,0,1,0,0.25)">
        <path d="M7.687,0.25C8.001,0.25 8.261,0.481 8.306,0.783L8.312,0.875L8.312,2.625L9.312,1.875C9.588,1.668 9.98,1.724 10.187,2C10.374,2.249 10.347,2.591 10.138,2.808L10.062,2.875L8.312,4.188L8.312,11.563L10.062,12.875C10.338,13.082 10.394,13.474 10.187,13.75C10.001,13.999 9.665,14.069 9.398,13.929L9.312,13.875L8.312,13.124L8.312,14.875C8.312,15.22 8.032,15.5 7.687,15.5C7.373,15.5 7.114,15.269 7.069,14.967L7.062,14.875L7.062,13.124L6.062,13.875C5.814,14.061 5.472,14.035 5.255,13.826L5.187,13.75C5.001,13.501 5.028,13.159 5.236,12.942L5.312,12.875L7.062,11.563L7.062,8.957L4.806,10.26L4.545,12.432C4.503,12.775 4.192,13.019 3.849,12.978C3.541,12.94 3.312,12.685 3.3,12.384L3.304,12.282L3.453,11.041L1.938,11.916C1.639,12.089 1.256,11.986 1.084,11.688C0.927,11.416 0.997,11.075 1.236,10.886L1.313,10.834L2.828,9.958L1.679,9.468C1.393,9.346 1.245,9.036 1.317,8.744L1.349,8.647C1.471,8.362 1.781,8.214 2.073,8.286L2.17,8.318L4.181,9.177L6.437,7.875L4.18,6.572L2.17,7.432C1.852,7.567 1.485,7.42 1.349,7.103C1.227,6.817 1.335,6.491 1.589,6.33L1.679,6.282L2.828,5.791L1.313,4.916C1.014,4.744 0.911,4.361 1.084,4.063C1.241,3.791 1.571,3.681 1.854,3.793L1.938,3.834L3.453,4.708L3.304,3.468C3.266,3.159 3.461,2.876 3.75,2.793L3.849,2.772C4.158,2.735 4.441,2.93 4.524,3.219L4.545,3.318L4.806,5.489L7.062,6.792L7.062,4.188L5.312,2.875C5.036,2.668 4.98,2.276 5.187,2C5.374,1.751 5.71,1.681 5.976,1.821L6.062,1.875L7.062,2.625L7.062,0.875C7.062,0.53 7.342,0.25 7.687,0.25ZM13,8.25C14.333,9.917 15,11.25 15,12.25C15,13.355 14.105,14.25 13,14.25C11.895,14.25 11,13.355 11,12.25C11,11.25 11.667,9.917 13,8.25ZM10.5,3.75C11.5,5 12,6 12,6.75C12,7.578 11.328,8.25 10.5,8.25C9.672,8.25 9,7.578 9,6.75C9,6 9.5,5 10.5,3.75ZM14,2.25C14.667,3.083 15,3.75 15,4.25C15,4.802 14.552,5.25 14,5.25C13.448,5.25 13,4.802 13,4.25C13,3.75 13.333,3.083 14,2.25Z" style="fill:white;fill-rule:nonzero;"/>
    </g>
</svg>
