<?xml version="1.0" encoding="UTF-8" standalone="no"?>
<!DOCTYPE svg PUBLIC "-//W3C//DTD SVG 1.1//EN" "http://www.w3.org/Graphics/SVG/1.1/DTD/svg11.dtd">
<svg width="100%" height="100%" viewBox="0 0 16 16" version="1.1" xmlns="http://www.w3.org/2000/svg" xmlns:xlink="http://www.w3.org/1999/xlink" xml:space="preserve" xmlns:serif="http://www.serif.com/" style="fill-rule:evenodd;clip-rule:evenodd;stroke-linejoin:round;stroke-miterlimit:2;">
    <g transform="matrix(1,0,0,1,0,0.888928)">
        <path d="M13.789,0.15L2.142,0.15C2.071,0.15 2.001,0.155 1.931,0.164C1.055,0.281 0.439,1.086 0.556,1.961L1.183,6.663L1.203,6.757C1.342,7.236 2.006,7.35 2.287,6.901L3.534,4.903L4.704,8.704L4.743,8.801C4.98,9.283 5.728,9.226 5.861,8.667L7.007,3.856L8.181,14.427L8.202,14.535C8.364,15.113 9.243,15.113 9.367,14.475L11.158,5.22L12.47,10.994C12.614,11.628 13.522,11.612 13.645,10.974L15.361,2.052C15.38,1.953 15.389,1.851 15.389,1.75C15.389,0.866 14.673,0.15 13.789,0.15ZM13.789,1.35C14.01,1.35 14.189,1.529 14.189,1.75L14.182,1.826L13.006,7.939L12.223,4.49C12.088,3.898 11.499,3.527 10.907,3.662L10.782,3.698C10.418,3.827 10.145,4.14 10.07,4.525L8.938,10.371L8.136,3.152C8.069,2.548 7.525,2.113 6.921,2.18L6.798,2.201C6.393,2.294 6.07,2.608 5.973,3.019L5.204,6.247L4.618,4.342C4.439,3.761 3.823,3.435 3.243,3.614L3.12,3.66C2.92,3.749 2.75,3.895 2.633,4.082L2.152,4.852L1.746,1.803C1.716,1.584 1.87,1.383 2.089,1.353L2.142,1.35L13.789,1.35Z" style="fill:rgb(235,235,246);"/>
    </g>
</svg>
