<?xml version="1.0" encoding="UTF-8" standalone="no"?>
<!DOCTYPE svg PUBLIC "-//W3C//DTD SVG 1.1//EN" "http://www.w3.org/Graphics/SVG/1.1/DTD/svg11.dtd">
<svg width="100%" height="100%" viewBox="0 0 16 16" version="1.1" xmlns="http://www.w3.org/2000/svg" xmlns:xlink="http://www.w3.org/1999/xlink" xml:space="preserve" xmlns:serif="http://www.serif.com/" style="fill-rule:evenodd;clip-rule:evenodd;stroke-linejoin:round;stroke-miterlimit:2;">
    <path d="M8,0.375C8.314,0.375 8.574,0.606 8.618,0.908L8.625,1L8.625,2.75L9.625,2C9.901,1.793 10.293,1.849 10.5,2.125C10.686,2.374 10.66,2.716 10.451,2.933L10.375,3L8.625,4.313L8.625,6.916L10.88,5.614L11.143,3.443C11.184,3.1 11.495,2.856 11.838,2.897C12.146,2.935 12.375,3.19 12.388,3.491L12.384,3.593L12.233,4.833L13.75,3.959C14.049,3.786 14.431,3.889 14.603,4.187C14.76,4.459 14.69,4.8 14.451,4.989L14.375,5.041L12.859,5.916L14.009,6.407C14.326,6.543 14.473,6.91 14.338,7.228C14.216,7.513 13.906,7.661 13.614,7.589L13.518,7.557L11.506,6.697L9.25,7.999L11.506,9.302L13.518,8.443C13.835,8.308 14.202,8.455 14.338,8.772C14.46,9.058 14.353,9.384 14.099,9.545L14.009,9.593L12.858,10.083L14.375,10.959C14.674,11.131 14.776,11.514 14.603,11.813C14.447,12.084 14.116,12.194 13.833,12.082L13.75,12.041L12.234,11.167L12.384,12.407C12.425,12.75 12.181,13.061 11.838,13.103C11.529,13.14 11.246,12.945 11.163,12.656L11.143,12.557L10.88,10.385L8.625,9.083L8.625,11.688L10.375,13C10.651,13.207 10.707,13.599 10.5,13.875C10.314,14.124 9.978,14.194 9.711,14.054L9.625,14L8.625,13.249L8.625,15C8.625,15.345 8.345,15.625 8,15.625C7.686,15.625 7.426,15.394 7.382,15.092L7.375,15L7.375,13.249L6.375,14C6.126,14.186 5.784,14.16 5.567,13.951L5.5,13.875C5.314,13.626 5.34,13.284 5.549,13.067L5.625,13L7.375,11.688L7.375,9.082L5.119,10.385L4.857,12.557C4.816,12.9 4.505,13.144 4.162,13.103C3.854,13.065 3.625,12.81 3.612,12.509L3.616,12.407L3.766,11.166L2.25,12.041C1.951,12.214 1.569,12.111 1.397,11.813C1.24,11.541 1.31,11.2 1.549,11.011L1.625,10.959L3.14,10.083L1.991,9.593C1.706,9.471 1.558,9.161 1.63,8.869L1.662,8.772C1.784,8.487 2.094,8.339 2.386,8.411L2.482,8.443L4.493,9.302L6.749,7.999L4.493,6.697L2.482,7.557C2.165,7.692 1.798,7.545 1.662,7.228C1.54,6.942 1.647,6.616 1.901,6.455L1.991,6.407L3.141,5.916L1.625,5.041C1.326,4.869 1.224,4.486 1.397,4.187C1.553,3.916 1.884,3.806 2.167,3.918L2.25,3.959L3.766,4.833L3.616,3.593C3.579,3.284 3.773,3.001 4.062,2.918L4.162,2.897C4.471,2.86 4.754,3.055 4.837,3.344L4.857,3.443L5.119,5.614L7.375,6.917L7.375,4.313L5.625,3C5.349,2.793 5.293,2.401 5.5,2.125C5.686,1.876 6.022,1.806 6.289,1.946L6.375,2L7.375,2.75L7.375,1C7.375,0.655 7.655,0.375 8,0.375Z" style="fill:rgb(235,235,246);"/>
</svg>
