<svg fill="none" height="32" viewBox="0 0 32 32" width="32" xmlns="http://www.w3.org/2000/svg"><g clip-rule="evenodd" fill-rule="evenodd"><path d="m22.4048 3.37258c.0235.07375.0114.15419-.0326.21785-.1355.18603-.2373.34767-.3079.48307-.3607.69113-.5645 1.47684-.5645 2.31015 0 2.76143 2.2386 5.00005 5 5.00005.876 0 1.6993-.2253 2.4153-.6211.1086-.06.2364-.1423.3834-.247l-.0004-.0006c.1126-.0798.2687-.0532.3485.0595.0448.0632.0578.1436.0351.2177-.05.1579-.0966.2895-.1403.3948-.7413 1.7823-2.3176 3.1301-4.2407 3.5552-.7199-1.0524-1.9299-1.7422-3.3009-1.7422l-2-.0009v-.9991c0-1.4756-.7991-2.76465-1.9881-3.45796.1237-2.24294 1.4813-4.15645 3.405-5.07542.1679-.08022.3927-.16547.6744-.25575l-.0003-.00082c.1316-.04182.2722.03095.314.16253z" fill="#fa0"/><path d="m15 7.75c1.2905 0 2.4723.46552 3.3864 1.23799 1.0804.91296 1.7876 2.25421 1.8577 3.76231l1.7559-.0003c1.1736 0 2.2361.4757 3.0052 1.2448s1.2448 1.8316 1.2448 3.0052-.4757 2.2361-1.2448 3.0052-1.8316 1.2448-3.0052 1.2448h-12.5c-1.03553 0-1.97303-.4197-2.65165-1.0983-.67862-.6787-1.09835-1.6162-1.09835-2.6517 0-.9599.36059-1.8356.95383-2.4988.59951-.6703 1.43639-1.1242 2.37882-1.2283.242-.0267.48223-.0295.71794-.01-.03313-.2403-.05027-.4858-.05029-.7355-.00013-1.4617.5862-2.7806 1.5356-3.73446.95-.95442 2.2634-1.54294 3.7141-1.54294z" stroke="#1d1e1f" stroke-width="1.5"/><path d="m6.41364 6.88055-.51715-.13924c-.13332-.03589-.2123-.17307-.1764-.3064.02316-.08603.09036-.15324.1764-.1764l.51715-.13925c.34415-.09266.61296-.36147.70562-.70562l.13925-.51715c.03589-.13332.17307-.2123.3064-.1764.08603.02316.15324.09036.1764.1764l.13924.51715c.09266.34415.36148.61296.70563.70562l.51715.13925c.13332.03589.2123.17307.1764.3064-.02316.08603-.09037.15324-.1764.1764l-.51715.13924c-.34415.09266-.61297.36148-.70563.70563l-.13924.51715c-.03589.13332-.17307.2123-.3064.1764-.08603-.02316-.15324-.09037-.1764-.1764l-.13925-.51715c-.09266-.34415-.36147-.61297-.70562-.70563z" fill="#fa0"/></g><path d="m8.79862 29.7077c.8002.2144 1.63788-.3171 1.87098-1.1872.1436-.5356.0215-1.7271-.3661-3.5745l-.0007.0001c-.0298-.1348-.1632-.22-.298-.1902-.05188.0114-.09874.0391-.13381.079-1.25564 1.4048-1.95576 2.3741-2.09912 2.9092-.23314.87.22655 1.7492 1.02675 1.9636z" fill="#52abf2"/><path d="m20.7986 27.7077c.8002.2144 1.6379-.3171 1.871-1.1872.1436-.5356.0215-1.7271-.3661-3.5745l-.0007.0001c-.0298-.1348-.1632-.22-.298-.1902-.0519.0114-.0987.0391-.1338.079-1.2556 1.4048-1.9558 2.3741-2.0991 2.9092-.2332.87.2265 1.7492 1.0267 1.9636z" fill="#52abf2"/><path d="m14.7986 28.7077c.8002.2144 1.6379-.3171 1.871-1.1872.1436-.5356.0215-1.7271-.3661-3.5745l-.0007.0001c-.0298-.1348-.1632-.22-.298-.1902-.0519.0114-.0987.0391-.1338.079-1.2556 1.4048-1.9558 2.3741-2.0991 2.9092-.2332.87.2265 1.7492 1.0267 1.9636z" fill="#52abf2"/></svg>