<svg fill="none" height="32" viewBox="0 0 32 32" width="32" xmlns="http://www.w3.org/2000/svg"><g stroke="#1badf8"><path d="m9.5 25.5v4" stroke-linecap="round"/><path d="m11.2319 26.5-3.46407 2" stroke-linecap="round"/><path d="m11.2322 28.5-3.46413-2" stroke-linecap="round"/><g opacity=".6" stroke-linecap="round"><path d="m16 24.5v4"/><path d="m17.7319 25.5-3.4641 2"/><path d="m17.7322 27.5-3.4641-2"/></g><g opacity=".8" stroke-linecap="round"><path d="m22.5 23.5v4"/><path d="m24.2319 24.5-3.4641 2"/><path d="m24.2322 26.5-3.4641-2"/></g></g><path d="m24 7c2.2091 0 4 1.79086 4 4 0 1.745-1.1174 3.229-2.6756 3.7755-.7174-1.0708-1.9386-1.7755-3.3244-1.7755l-1.4642.0011c-.3408-.5886-.5358-1.2721-.5358-2.0011 0-2.20914 1.7909-4 4-4z" fill="#f7ce46"/><path d="m24 4v1" stroke="#fc0" stroke-linecap="round" stroke-linejoin="round" stroke-width="2"/><path d="m28.9497 6.05029-.7071.70711" stroke="#fc0" stroke-linecap="round" stroke-linejoin="round" stroke-width="2"/><path d="m31 11h-1" stroke="#fc0" stroke-linecap="round" stroke-linejoin="round" stroke-width="2"/><path d="m28.9497 15.9497-.7071-.7071" stroke="#fc0" stroke-linecap="round" stroke-linejoin="round" stroke-width="2"/><path d="m19.7573 6.75732-.7071-.7071" stroke="#fc0" stroke-linecap="round" stroke-linejoin="round" stroke-width="2"/><path clip-rule="evenodd" d="m15 7.75c1.2905 0 2.4723.46552 3.3864 1.23799 1.0804.91296 1.7876 2.25421 1.8577 3.76231l1.7559-.0003c1.1736 0 2.2361.4757 3.0052 1.2448s1.2448 1.8316 1.2448 3.0052-.4757 2.2361-1.2448 3.0052-1.8316 1.2448-3.0052 1.2448h-12.5c-1.03553 0-1.97303-.4197-2.65165-1.0983-.67862-.6787-1.09835-1.6162-1.09835-2.6517 0-.9599.36059-1.8356.95383-2.4988.59951-.6703 1.43639-1.1242 2.37882-1.2283.242-.0267.48223-.0295.71794-.01-.03313-.2403-.05027-.4858-.05029-.7355-.00013-1.4617.5862-2.7806 1.5356-3.73446.95-.95442 2.2634-1.54294 3.7141-1.54294z" fill-rule="evenodd" stroke="#1d1e1f" stroke-width="1.5"/></svg>