<svg fill="none" height="32" viewBox="0 0 32 32" width="32" xmlns="http://www.w3.org/2000/svg"><path clip-rule="evenodd" d="m22.4048 3.37258c.0235.07375.0114.15419-.0326.21785-.1355.18603-.2373.34767-.3079.48307-.3607.69113-.5645 1.47684-.5645 2.31015 0 2.76143 2.2386 5.00005 5 5.00005.876 0 1.6993-.2253 2.4153-.6211.1086-.06.2364-.1423.3834-.247l-.0004-.0006c.1126-.0798.2687-.0532.3485.0595.0448.0632.0578.1436.0351.2177-.05.1579-.0966.2895-.1403.3948-.7413 1.7823-2.3176 3.1301-4.2407 3.5552-.7199-1.0524-1.9299-1.7422-3.3009-1.7422l-2-.0009v-.9991c0-1.4756-.7991-2.76465-1.9881-3.45796.1237-2.24294 1.4813-4.15645 3.405-5.07542.1679-.08022.3927-.16547.6744-.25575l-.0003-.00082c.1316-.04182.2722.03095.314.16253z" fill="#fa0" fill-rule="evenodd"/><path clip-rule="evenodd" d="m15 7.75c1.2905 0 2.4723.46552 3.3864 1.23799 1.0804.91296 1.7876 2.25421 1.8577 3.76231l1.7559-.0003c1.1736 0 2.2361.4757 3.0052 1.2448s1.2448 1.8316 1.2448 3.0052-.4757 2.2361-1.2448 3.0052-1.8316 1.2448-3.0052 1.2448h-12.5c-1.03553 0-1.97303-.4197-2.65165-1.0983-.67862-.6787-1.09835-1.6162-1.09835-2.6517 0-.96.3607-1.8358.95411-2.4992.59967-.6703 1.43675-1.1241 2.37938-1.228.24216-.0267.48255-.0293.71841-.0099-.03326-.2403-.0505-.486-.0506-.7359-.00057-1.4615.5855-2.7803 1.5347-3.73402.9499-.95444 2.2632-1.54298 3.714-1.54298z" fill-rule="evenodd" stroke="#fff" stroke-width="1.5"/><g stroke="#1ac6ff" stroke-linecap="round"><path d="m9.5 25.5v4"/><path d="m11.2319 26.5-3.46407 2"/><path d="m11.2322 28.5-3.46413-2"/><g opacity=".6"><path d="m16 24.5v4"/><path d="m17.7319 25.5-3.4641 2"/><path d="m17.7322 27.5-3.4641-2"/></g><g opacity=".8"><path d="m22.5 23.5v4"/><path d="m24.2319 24.5-3.4641 2"/><path d="m24.2322 26.5-3.4641-2"/></g></g></svg>