<svg fill="none" height="32" viewBox="0 0 32 32" width="32" xmlns="http://www.w3.org/2000/svg"><path clip-rule="evenodd" d="m15 7.75c1.2905 0 2.4723.46552 3.3864 1.23799 1.0804.91296 1.7876 2.25421 1.8577 3.76231l1.7559-.0003c1.1736 0 2.2361.4757 3.0052 1.2448s1.2448 1.8316 1.2448 3.0052-.4757 2.2361-1.2448 3.0052-1.8316 1.2448-3.0052 1.2448h-12.5c-1.03553 0-1.97303-.4197-2.65165-1.0983-.67862-.6787-1.09835-1.6162-1.09835-2.6517 0-.96.3607-1.8358.95411-2.4992.59967-.6703 1.43675-1.1241 2.37938-1.228.24216-.0267.48255-.0293.71841-.0099-.03326-.2403-.0505-.486-.0506-.7359-.00057-1.4615.5855-2.7803 1.5347-3.73402.9499-.95444 2.2632-1.54298 3.714-1.54298z" fill-rule="evenodd" stroke="#fff" stroke-width="1.5"/><g fill="#19c6ff"><path d="m8.79862 29.7077c.8002.2144 1.63788-.3171 1.87098-1.1872.1436-.5356.0215-1.7271-.3661-3.5745l-.0007.0001c-.0298-.1348-.1632-.22-.298-.1902-.05188.0114-.09874.0391-.13381.079-1.25564 1.4048-1.95576 2.3741-2.09912 2.9092-.23314.87.22655 1.7492 1.02675 1.9636z"/><path d="m20.7986 27.7077c.8002.2144 1.6379-.3171 1.871-1.1872.1436-.5356.0215-1.7271-.3661-3.5745l-.0007.0001c-.0298-.1348-.1632-.22-.298-.1902-.0519.0114-.0987.0391-.1338.079-1.2556 1.4048-1.9558 2.3741-2.0991 2.9092-.2332.87.2265 1.7492 1.0267 1.9636z"/><path d="m14.7986 28.7077c.8002.2144 1.6379-.3171 1.871-1.1872.1436-.5356.0215-1.7271-.3661-3.5745l-.0007.0001c-.0298-.1348-.1632-.22-.298-.1902-.0519.0114-.0987.0391-.1338.079-1.2556 1.4048-1.9558 2.3741-2.0991 2.9092-.2332.87.2265 1.7492 1.0267 1.9636z"/></g></svg>