<svg fill="none" height="32" viewBox="0 0 32 32" width="32" xmlns="http://www.w3.org/2000/svg"><g stroke="#1ac6ff" stroke-linecap="round"><path d="m9.5 25.5v4"/><path d="m11.2319 26.5-3.46407 2"/><path d="m11.2322 28.5-3.46413-2"/><g opacity=".6"><path d="m16 24.5v4"/><path d="m17.7319 25.5-3.4641 2"/><path d="m17.7322 27.5-3.4641-2"/></g><g opacity=".8"><path d="m22.5 23.5v4"/><path d="m24.2319 24.5-3.4641 2"/><path d="m24.2322 26.5-3.4641-2"/></g></g><path clip-rule="evenodd" d="m15 7.75c1.2905 0 2.4723.46552 3.3864 1.23799 1.0804.91296 1.7876 2.25421 1.8577 3.76231l1.7559-.0003c1.1736 0 2.2361.4757 3.0052 1.2448s1.2448 1.8316 1.2448 3.0052-.4757 2.2361-1.2448 3.0052-1.8316 1.2448-3.0052 1.2448h-12.5c-1.03553 0-1.97303-.4197-2.65165-1.0983-.67862-.6787-1.09835-1.6162-1.09835-2.6517 0-.96.3607-1.8358.95411-2.4992.59967-.6703 1.43675-1.1241 2.37938-1.228.24216-.0267.48255-.0293.71841-.0099-.03326-.2403-.0505-.486-.0506-.7359-.00057-1.4615.5855-2.7803 1.5347-3.73402.9499-.95444 2.2632-1.54298 3.714-1.54298z" fill-rule="evenodd" stroke="#fff" stroke-width="1.5"/></svg>