<?xml version="1.0" encoding="UTF-8" standalone="no"?>
<!DOCTYPE svg PUBLIC "-//W3C//DTD SVG 1.1//EN" "http://www.w3.org/Graphics/SVG/1.1/DTD/svg11.dtd">
<svg width="100%" height="100%" viewBox="0 0 20 20" version="1.1" xmlns="http://www.w3.org/2000/svg" xmlns:xlink="http://www.w3.org/1999/xlink" xml:space="preserve" xmlns:serif="http://www.serif.com/" style="fill-rule:evenodd;clip-rule:evenodd;stroke-linecap:round;stroke-linejoin:round;stroke-miterlimit:10;">
    <clipPath id="_clip1">
        <path d="M10,15C12.761,15 15,12.761 15,10C15,7.239 12.761,5 10,5C7.239,5 5,7.239 5,10C5,12.761 7.239,15 10,15Z" clip-rule="nonzero"/>
    </clipPath>
    <g clip-path="url(#_clip1)">
        <rect x="0" y="0" width="20" height="20" style="fill:rgb(255,198,0);"/>
    </g>
    <g transform="matrix(0,1,-1,0,10.4968,1)">
        <path d="M0,0.5L1,0.5" style="fill:none;fill-rule:nonzero;stroke:rgb(255,198,0);stroke-width:2px;"/>
    </g>
    <g transform="matrix(0,1,-1,0,10.4968,18)">
        <path d="M0,0.5L1,0.5" style="fill:none;fill-rule:nonzero;stroke:rgb(255,198,0);stroke-width:2px;"/>
    </g>
    <g transform="matrix(-1,0,0,-1,19,10.4968)">
        <path d="M0,0.5L1,0.5" style="fill:none;fill-rule:nonzero;stroke:rgb(255,198,0);stroke-width:2px;"/>
    </g>
    <g transform="matrix(-1,0,0,-1,2,10.4968)">
        <path d="M0,0.5L1,0.5" style="fill:none;fill-rule:nonzero;stroke:rgb(255,198,0);stroke-width:2px;"/>
    </g>
    <g transform="matrix(0.707107,0.707107,-0.707107,0.707107,3.98731,3.28476)">
        <path d="M0,0.5L1,0.5" style="fill:none;fill-rule:nonzero;stroke:rgb(255,198,0);stroke-width:2px;"/>
    </g>
    <g transform="matrix(0.707107,0.707107,-0.707107,0.707107,16.0081,15.3056)">
        <path d="M0,0.5L1,0.5" style="fill:none;fill-rule:nonzero;stroke:rgb(255,198,0);stroke-width:2px;"/>
    </g>
    <g transform="matrix(-0.707107,0.707107,-0.707107,-0.707107,16.7152,3.98732)">
        <path d="M0,0.5L1,0.5" style="fill:none;fill-rule:nonzero;stroke:rgb(255,198,0);stroke-width:2px;"/>
    </g>
    <g transform="matrix(-0.707107,0.707107,-0.707107,-0.707107,4.69442,16.0081)">
        <path d="M0,0.5L1,0.5" style="fill:none;fill-rule:nonzero;stroke:rgb(255,198,0);stroke-width:2px;"/>
    </g>
</svg>
