<?xml version="1.0" encoding="UTF-8" standalone="no"?>
<!DOCTYPE svg PUBLIC "-//W3C//DTD SVG 1.1//EN" "http://www.w3.org/Graphics/SVG/1.1/DTD/svg11.dtd">
<svg width="100%" height="100%" viewBox="0 0 16 15" version="1.1" xmlns="http://www.w3.org/2000/svg" xmlns:xlink="http://www.w3.org/1999/xlink" xml:space="preserve" xmlns:serif="http://www.serif.com/" style="fill-rule:evenodd;clip-rule:evenodd;stroke-linecap:round;stroke-linejoin:round;stroke-miterlimit:10;">
    <g transform="matrix(1,0,0,1,0,8)">
        <clipPath id="_clip1">
            <path d="M8,2C9.657,2 11,3.343 11,5L5,5C5,3.343 6.343,2 8,2Z" clip-rule="nonzero"/>
        </clipPath>
        <g clip-path="url(#_clip1)">
            <rect x="0" y="-3" width="16" height="13" style="fill:rgb(255,142,0);"/>
        </g>
    </g>
    <g transform="matrix(1,0,0,1,0,14)">
        <clipPath id="_clip2">
            <path d="M0.5,0L15.5,0C15.776,0 16,0.224 16,0.5C16,0.776 15.776,1 15.5,1L0.5,1C0.224,1 0,0.776 0,0.5C0,0.224 0.224,0 0.5,0Z"/>
        </clipPath>
        <g clip-path="url(#_clip2)">
            <rect x="-5" y="-5" width="26" height="11" style="fill:rgb(255,142,0);"/>
        </g>
    </g>
    <g transform="matrix(-1,0,0,-1,3.25,13)">
        <path d="M0.25,0.5L0.75,0.5" style="fill:none;fill-rule:nonzero;stroke:rgb(255,142,0);stroke-width:1px;"/>
    </g>
    <g transform="matrix(-1,0,0,-1,13.75,13)">
        <path d="M0.25,0.5L0.75,0.5" style="fill:none;fill-rule:nonzero;stroke:rgb(255,142,0);stroke-width:1px;"/>
    </g>
    <g transform="matrix(0,1,-1,0,8.5,7.5)">
        <path d="M0.25,0.5L0.75,0.5" style="fill:none;fill-rule:nonzero;stroke:rgb(255,142,0);stroke-width:1px;"/>
    </g>
    <g transform="matrix(-0.707107,0.707107,-0.707107,-0.707107,12.4926,9.46447)">
        <path d="M0.25,0.5L0.75,0.5" style="fill:none;fill-rule:nonzero;stroke:rgb(255,142,0);stroke-width:1px;"/>
    </g>
    <g transform="matrix(0.707107,0.707107,-0.707107,0.707107,4.71447,8.75736)">
        <path d="M0.25,0.5L0.75,0.5" style="fill:none;fill-rule:nonzero;stroke:rgb(255,142,0);stroke-width:1px;"/>
    </g>
    <g transform="matrix(1,0,0,1,5.5,3)">
        <path d="M0,0L2.5,2.5L5,0" style="fill:none;fill-rule:nonzero;stroke:rgb(255,142,0);stroke-width:1.5px;"/>
    </g>
    <g transform="matrix(0,1,-1,0,10.25,2.75)">
        <path d="M-1.75,2.25L2.75,2.25" style="fill:none;fill-rule:nonzero;stroke:rgb(255,142,0);stroke-width:1.5px;"/>
    </g>
</svg>
