<svg fill="none" height="32" viewBox="0 0 32 32" width="32" xmlns="http://www.w3.org/2000/svg"><path clip-rule="evenodd" d="m15 7.75c1.2905 0 2.4723.46552 3.3864 1.23799 1.0804.91296 1.7876 2.25421 1.8577 3.76231l1.7559-.0003c1.1736 0 2.2361.4757 3.0052 1.2448s1.2448 1.8316 1.2448 3.0052-.4757 2.2361-1.2448 3.0052-1.8316 1.2448-3.0052 1.2448h-12.5c-1.03553 0-1.97303-.4197-2.65165-1.0983-.67862-.6787-1.09835-1.6162-1.09835-2.6517 0-.96.3607-1.8358.95411-2.4992.59967-.6703 1.43675-1.1241 2.37938-1.228.24216-.0267.48255-.0293.71841-.0099-.03326-.2403-.0505-.486-.0506-.7359-.00057-1.4615.5855-2.7803 1.5347-3.73402.9499-.95444 2.2632-1.54298 3.714-1.54298z" fill-rule="evenodd" stroke="#fff" stroke-width="1.5"/><path d="m16.7143 20.0001.6391-6.263c.014-.1374-.086-.2601-.2233-.2741-.0777-.008-.1545.0208-.2079.0778l-7.13383 7.6175c-.18876.2015-.17838.518.02317.7067.09266.0868.21486.1351.34176.1351h3.1325l-.6391 6.263c-.014.1373.0859.2601.2233.2741.0776.0079.1545-.0209.2079-.0779l7.1338-7.6175c.1888-.2015.1784-.5179-.0232-.7067-.0926-.0868-.2148-.135-.3417-.135z" fill="#f7ce46"/></svg>