<svg fill="none" height="32" viewBox="0 0 32 32" width="32" xmlns="http://www.w3.org/2000/svg"><g stroke="#b1b1b3" stroke-linecap="round" stroke-linejoin="round" stroke-width="2"><path d="m13 9.5c0-1.38071 1.1193-2.5 2.5-2.5s2.5 1.11929 2.5 2.5v.5c0 1.6569-1.3431 3-3 3h-9"/><path d="m15 22.5c0 1.3807 1.1193 2.5 2.5 2.5s2.5-1.1193 2.5-2.5v-.5c0-1.6569-1.3431-3-3-3h-9" opacity=".5"/><path d="m21 12.5c0-1.3807 1.1193-2.5 2.5-2.5s2.5 1.1193 2.5 2.5v.5c0 1.6569-1.3431 3-3 3h-12" opacity=".8"/></g></svg>